# xmcd
#
# Track frame offsets:
# 150
# 16207
# 35746
# 52910
# 66643
# 86264
# 102954
# 118963
# 133616
# 155742
# 172523
# 197813
# 220874
# 232278
# 245656
# 258836
# 275659
# 290970
#
# Disc length: 4085 seconds
#
#
# Revision: 0
# Processed by: cddbd v1.5.2PL0 Copyright (c) Steve Scherf et al.
# Submitted via: FreeRIP 2.945 
#
DISCID=140ff312
DTITLE=Douglas e Henrique - Acustico ao Vivo
DYEAR=1900
DGENRE=Other
TTITLE0=Um xote pra voce
TTITLE1=So quero voce
TTITLE2=Amor Antigo
TTITLE3=Vai dar certo
TTITLE4=Agora e sempre
TTITLE5=Apesar
TTITLE6=Troca Tapa
TTITLE7=Mais do que palavras
TTITLE8=Nova York - Desejo de Amar
TTITLE9=Roupa de lua de mel
TTITLE10=A loira do carro branco - faz sao francisco
TTITLE11=Alguem - hoje eu sei
TTITLE12=Tem que ter mulher - coice de vaca
TTITLE13=Mala amarela
TTITLE14=Grito de amor
TTITLE15=Camisa manchada - proposta
TTITLE16=Fruto proibido - coracao de vidro
TTITLE17=Pagode em Brasilia
EXTD=
EXTT0=
EXTT1=
EXTT2=
EXTT3=
EXTT4=
EXTT5=
EXTT6=
EXTT7=
EXTT8=
EXTT9=
EXTT10=
EXTT11=
EXTT12=
EXTT13=
EXTT14=
EXTT15=
EXTT16=
EXTT17=
PLAYORDER=
